<svg xmlns="http://www.w3.org/2000/svg" viewBox="0 0 746.19 750.63"><defs><style>.a{fill:#e6e7e8;}.b,.c{fill:#231f20;}.b{fill-rule:evenodd;}</style></defs><title>circle</title><path class="a" d="M370.73,593q-3.82-.5-7.62-1.14t-7.52-1.42a205.27,205.27,0,0,1-37-11.42l-0.15-.06-0.06.14L316.74,583l-0.06.15,0.14,0.06h0q3.52,1.46,7.12,2.8t7.24,2.55a209.37,209.37,0,0,0,39,8.92l0.16,0,0-.16,0.55-4.21,0-.16-0.16,0h0Zm-0.7,4.19a209.11,209.11,0,0,1-38.75-8.89q-3.64-1.21-7.23-2.55t-7-2.74l1.51-3.63a205.46,205.46,0,0,0,36.93,11.37q3.74,0.78,7.54,1.42t7.48,1.12Zm234.49-209h0a206.49,206.49,0,0,0-11.32-67.64q-1.79-5.19-3.84-10.22a206.59,206.59,0,0,0-27.47-47.9l3.23-2.48,0.13-.1-0.1-.12h0a212.41,212.41,0,0,0-37.29-37.67,210.12,210.12,0,0,0-130.18-44.94h0q-7,0-13.88.45l-2.24.16q-5.74.44-11.4,1.18l-0.16,0h0A211.05,211.05,0,0,0,189.62,352.49l-0.12.69q-0.85,5.06-1.45,10.16h0a212.26,212.26,0,0,0-1.46,24.86h0a210.12,210.12,0,0,0,22.48,94.86q3.51,7,7.51,13.62A212.12,212.12,0,0,0,269,555.5h0l0.5,0.38,6.73-8.73a200,200,0,0,0,46.26,26.54q4.87,2,9.9,3.73a199.75,199.75,0,0,0,65.5,11h0q9.49,0,18.79-.87,1.84-.17,3.6-0.37t3.58-.43h0l0.46-.06-1-7.77a192.64,192.64,0,0,0,127.1-73.55h0l0.29-.37-0.37-.29L537,494.36q3.44-4.51,6.59-9.23l0.11,0.07a175.58,175.58,0,0,0,12.56-22.35q1.65-3.51,3.13-7.08l15.56,6.47,0.44,0.18,0.18-.44a190.84,190.84,0,0,0,9.55-29.58q0.69-2.93,1.3-6a193.22,193.22,0,0,0,3.78-38.12h0A191.82,191.82,0,0,0,524.5,243.61q-4.57-4-9.38-7.71l8.63-11.26a207.8,207.8,0,0,1,37.78,37.87l0.1,0.13h0a206.32,206.32,0,0,1,27.42,47.83q2.05,5.05,3.84,10.21a206.17,206.17,0,0,1,11.3,67.53h0a205.6,205.6,0,0,1-42.57,125.58h0l-0.1.12h0a206.71,206.71,0,0,1-137,79.08l-0.16,0,0,0.16,0.55,4.21,0,0.16,0.16,0h0a210.55,210.55,0,0,0,140-80.84l0.1-.12-0.12-.1L561.89,514a205.92,205.92,0,0,0,42.63-125.77h0Zm-335.35,167a212.05,212.05,0,0,1-29.55-27.63c-3.17-3.59-6.11-7.32-9.08-11.07l3-2.35c2.92,3.61,5.82,7.22,8.89,10.71s6.37,7,9.73,10.31a208.14,208.14,0,0,0,19.37,16.93Zm280.21-50.12A192.25,192.25,0,0,1,521,534.77,190.52,190.52,0,0,1,422.73,578l-0.47.06,0.06,0.47,1,7.61-3.11.37q-1.83.2-3.59,0.37-9.24.86-18.73,0.87h0a199.13,199.13,0,0,1-65.3-10.94q-5-1.72-9.87-3.72a199.25,199.25,0,0,1-46.36-26.64l-0.25-.19-0.19.25-4.13,5.36A207.78,207.78,0,0,1,252.42,535q-5.05-5-9.75-10.33-3.89-4.42-7.54-9.06a205.58,205.58,0,0,1-44-127.38h0q0-8.52.69-16.89,0.11-1.39.24-2.72,0.34-3.59.8-7.15l-4.22-.55c0.37-2.55.72-5.1,1.14-7.64l0.11-.64a209.16,209.16,0,0,1,12.89-44.75l10.31,4.27,0.29,0.12,0.12-.29h0a198.87,198.87,0,0,1,14.94-29q5.06-8.12,10.87-15.7l12.24,9.38A182.31,182.31,0,0,0,228,317.3l-7.16-3-0.44-.18-0.18.44a190.81,190.81,0,0,0-9.56,29.6q-0.69,2.93-1.3,6a193.08,193.08,0,0,0-3.79,38.14h0a192.26,192.26,0,0,0,7.68,54q1.46,5,3.18,9.88h0q1.64,4.66,3.51,9.2l-7.23,3,0.18,0.44h0a199.56,199.56,0,0,0,17.66,33.32q2,3.07,4.12,6,2,2.81,4.09,5.53h0l0.58,0.75,6.21-4.78a193.33,193.33,0,0,0,53.33,47.52q6,3.64,12.38,6.84t12.92,5.94h0l0.44,0.19,0.18-.44L330.5,552a175.58,175.58,0,0,0,43.11,11.75l-1.05,6.5A229.82,229.82,0,0,0,398.21,572,182.42,182.42,0,0,0,509,534.72l0.77-.51-7.14-9.29a172.2,172.2,0,0,0,31.58-31.51ZM370.65,561a173.28,173.28,0,0,1-39.36-11.15l-0.79-.33-6.39,15.33q-6.33-2.65-12.42-5.73-6.29-3.18-12.32-6.81A192.37,192.37,0,0,1,246,504.68l-0.29-.38-0.38.29-6.07,4.68q-2.08-2.72-4.07-5.51-2.12-3-4.11-6A199,199,0,0,1,213.68,465l7.09-2.94,0.44-.18-0.19-.44h0q-2-4.73-3.67-9.58h0q-1.72-4.87-3.16-9.82a190.31,190.31,0,0,1-6-28.57l7.2-1a183.28,183.28,0,0,0,41.52,94.17,185.19,185.19,0,0,0,28.82,27.61h0l0.2,0.15,0.15-.2,7.75-10.13a170.16,170.16,0,0,0,104.37,35.58h0a172.58,172.58,0,0,0,21.17-1.3l0.43-.07L421,567a181.21,181.21,0,0,1-44.44.14l0.65-5.3C375,561.62,372.82,561.36,370.65,561ZM206.55,388.29a193.08,193.08,0,0,1,1.57-24.59l7.44,1,0.25,0,0-.25h0A182.41,182.41,0,0,1,223.44,331q2.11-6.44,4.69-12.66l8.8,3.67a174.11,174.11,0,0,0-11.83,89.2h0v0.08l3.59-.47a169.74,169.74,0,0,0,11.19,42.41l-11.81,4.88a182.25,182.25,0,0,1-12.23-46l0-.25-0.25,0-7.45,1a193,193,0,0,1-1.58-24.63h0Zm1.64-25.09q0.85-6.5,2.12-12.86,0.59-3,1.3-6a189.78,189.78,0,0,1,9.33-29l6.71,2.8q-2.57,6.24-4.71,12.7a182.89,182.89,0,0,0-7.57,33.3Zm282.6-95.58,10.93-14.24a170.42,170.42,0,0,1,31.14,30.94L516.1,297.17c-0.6-.78-1.2-1.58-1.82-2.35l2.34-1.88A153.72,153.72,0,0,0,490.8,267.61Zm10.71-15.07a170.88,170.88,0,0,0-38.06-21.85l1.16-2.78q3.79,1.57,7.51,3.3a174.79,174.79,0,0,1,31.26,18.89Zm-0.32.42-10.93,14.25A151,151,0,0,0,418,237.32l2.31-17.58A169.54,169.54,0,0,1,501.19,253Zm3.62,93.37,4-1.65L508.07,343l8.8-3.64a128.14,128.14,0,0,1,9.58,48.75h0a129.67,129.67,0,0,1-1.07,16.64l-11.13-1.46c0-.24.07-0.47,0.1-0.71h0q0.35-2.92.56-5.89,0-.56.08-1.16,0.21-3.55.22-7.16h0q0-5.57-.51-11-0.1-1.09-.22-2.11t-0.25-2.1h0l-0.52.07h0c0.09,0.68.17,1.37,0.25,2.09s0.15,1.42.22,2.1q0.5,5.41.51,11h0q0,3.58-.22,7.13c0,0.38,0,.76-0.08,1.15q-0.21,3-.56,5.87h0q-0.28,2.28-.63,4.51t-0.8,4.45a115.91,115.91,0,0,1-6.67,21.79l-0.06.14,10.79,4.47A128.47,128.47,0,0,1,500,466.19l-7.38-5.66,1.07-1.4-3.35-2.57-2.57,3.35,3.35,2.57,1.08-1.41,7.38,5.66A128.38,128.38,0,0,1,476.23,490l-6.66-8.67c0.66-.51,1.31-1,2-1.53a118.13,118.13,0,0,0,9.39-8.44h0l-0.55-.55h0a117.29,117.29,0,0,1-19.52,15.73,116.11,116.11,0,0,1-63,18.44h0a116.45,116.45,0,0,1-38.37-6.46q-2.95-1-5.8-2.19a116.47,116.47,0,0,1-25.16-14.2l1.06-1.38-3.35-2.57-2.57,3.35,1.34,1-5.64,7.35a128.38,128.38,0,0,1-23.25-23.22l9.22-7.07-0.06-.08Q304,457.8,302.73,456t-2.45-3.57A116.5,116.5,0,0,1,290,433l-0.15-.38L279,437.09a127.65,127.65,0,0,1-8.53-31.73l8.69-1.14a2.87,2.87,0,1,0-.05-0.67l-8.73,1.15a129.67,129.67,0,0,1-1.07-16.63h0a129.7,129.7,0,0,1,1-16.11l11.7,1.53v-0.07h0q0.28-2.2.64-4.39t0.8-4.33A115.89,115.89,0,0,1,290,343.4h0l0-.11-11-4.54a129,129,0,0,1,69.08-69.3l4.35,10.5A117.19,117.19,0,0,0,306,315.14l-1.35-1-2.57,3.35,3.35,2.57,2.57-3.35-1.38-1.06a116.38,116.38,0,0,1,19.56-19.37,116.16,116.16,0,0,1,71.69-24.62h0A116.16,116.16,0,0,1,450.19,284q3.84,1.93,7.52,4.13a117.28,117.28,0,0,1,32.11,28.37,2.93,2.93,0,1,0,.63-0.46,118.06,118.06,0,0,0-32.34-28.58q-3.69-2.21-7.57-4.16-3.63-1.82-7.4-3.39l4.34-10.48a129,129,0,0,1,69.13,69.26l-8.8,3.65-0.67-1.62-4,1.65Zm20.47,59a127.68,127.68,0,0,1-8.58,31.84l-10.3-4.27a116.48,116.48,0,0,0,6.5-21.41q0.45-2.23.81-4.47c0.17-1,.3-2.1.44-3.15ZM398.21,559.12h0a171.72,171.72,0,0,1-22.29-1.45l2.41-18.33q3.52,0.45,7.09.75l0.25-3q6,0.49,12.21.5h0a150.72,150.72,0,0,0,19.05-1.21l2.81,21.39-0.54.07a172,172,0,0,1-21,1.28h0ZM240.6,323.57l0.08,0h0L257,330.35a151.33,151.33,0,0,0-10.1,37.85l-21.14-2.77a174.47,174.47,0,0,1,11.67-43.19l2.95,1.23,0.15,0.06h0Zm157.28-84h0a148.22,148.22,0,0,1,56.61,11.17l-6.08,14.68-0.54-.21a132.19,132.19,0,0,0-50-9.76,133.74,133.74,0,0,0-17,1.08l-2.07-15.74a150.06,150.06,0,0,1,19.08-1.22h0Zm0,31.27a118.46,118.46,0,0,0-15,1l-1.48-11.26a129.73,129.73,0,0,1,16.48-1h0a129.72,129.72,0,0,1,16.39,1l-1.48,11.27a118.38,118.38,0,0,0-14.9-.95h0Zm-15.68,1a116.58,116.58,0,0,0-29,7.79l-4.35-10.49a127.68,127.68,0,0,1,31.9-8.56Zm32.73-11.27a127.65,127.65,0,0,1,31.92,8.54l-4.34,10.48a116.61,116.61,0,0,0-29.06-7.76Zm-34.74-4a131.66,131.66,0,0,0-32.93,8.83l-6.08-14.68a147.66,147.66,0,0,1,36.94-9.89Zm-33.55,9.09a132.49,132.49,0,0,0-29.33,17l-9.69-12.63A148.57,148.57,0,0,1,340.56,251ZM292.51,468.59l-12.89,9.89A148,148,0,0,1,250.45,408l16-2.1A131.94,131.94,0,0,0,292.51,468.59Zm-13.26-30.88,10.32-4.27a117.08,117.08,0,0,0,10.28,19.32q1.21,1.83,2.46,3.58c0.73,1,1.48,2,2.24,3l-8.82,6.76A128.43,128.43,0,0,1,279.25,437.71Zm-2.47,42.93-14.36,11a170.23,170.23,0,0,1-21.78-38l16.59-6.86A152.16,152.16,0,0,0,276.79,480.65Zm-27.63-92.36a150,150,0,0,1,1.2-19l15.94,2.09a133.61,133.61,0,0,0,.07,33.79l-16,2.1a150,150,0,0,1-1.21-19h0Zm17.22-17.54-15.93-2.09a147.67,147.67,0,0,1,9.86-36.95l14.8,6.12A131.66,131.66,0,0,0,266.38,370.75Zm12.47-31.37,10.48,4.33A116.38,116.38,0,0,0,283,364.59q-0.44,2.17-.81,4.35c-0.21,1.26-.39,2.53-0.56,3.81l-11.2-1.47A127.65,127.65,0,0,1,278.85,339.38Zm-3.49-2.18-14.8-6.12a148.56,148.56,0,0,1,19.05-33l12.66,9.71A132.47,132.47,0,0,0,275.37,337.2ZM280,297.58a148.48,148.48,0,0,1,27-27.07l9.69,12.63a133.42,133.42,0,0,0-24.07,24.15Zm-21,32.86L241,323a171.22,171.22,0,0,1,53.28-69.24l0.28,0.36A169.36,169.36,0,0,1,332.66,232l7.26,17.52A151,151,0,0,0,259,330.44Zm-12.21,38.43a153.7,153.7,0,0,0,0,38.91l-21.24,2.79a172.73,172.73,0,0,1,.1-44.47Zm0.1,39.58A151.18,151.18,0,0,0,257,446.19l-16.59,6.86a169.21,169.21,0,0,1-11.16-42.28Zm30.44,101.13a171.87,171.87,0,0,0,16.09,14.19l-7.59,9.93a184.18,184.18,0,0,1-57.5-74.93l11.81-4.88A171.2,171.2,0,0,0,277.35,509.58Zm0.38-.38a171.37,171.37,0,0,1-14.89-17l30.08-23.07a133.4,133.4,0,0,0,24,24L293.71,523.3A171.45,171.45,0,0,1,277.73,509.2Zm120.15-3.46a118.38,118.38,0,0,0,14.9-1l1.42,10.81a129.87,129.87,0,0,1-16.33,1h0a129.8,129.8,0,0,1-16.42-1l1.42-10.8a118.51,118.51,0,0,0,15,1h0Zm-17.1,9.75A127.63,127.63,0,0,1,349,507l4.17-10.07,0.26,0.11q2.89,1.18,5.83,2.21a116.66,116.66,0,0,0,22.95,5.45Zm-32.42-8.76a128.39,128.39,0,0,1-28.43-16.44l5.64-7.35,1.47,1.13,1-1.34a117.44,117.44,0,0,0,24.46,13.92Zm31.9,12.77-2.13,16.2a148,148,0,0,1-70.59-29.28l9.92-12.92A132,132,0,0,0,380.25,519.51Zm-74.89-10.26A152.14,152.14,0,0,0,339.52,529l1.15-2.77a148.27,148.27,0,0,0,37.38,10l-2.8,21.31a169.54,169.54,0,0,1-81-33.86ZM397.88,537h0a150.08,150.08,0,0,1-19.08-1.22l2.36-17.94a132.31,132.31,0,0,0,16.72,1.06h0a132,132,0,0,0,16.63-1.05l2.36,17.95A150.14,150.14,0,0,1,397.88,537Zm15.57-32.32a116.59,116.59,0,0,0,29.06-7.75L446.68,507a127.68,127.68,0,0,1-31.81,8.48Zm29.68-8a117.19,117.19,0,0,0,18.13-9.52q4-2.57,7.77-5.45l6.67,8.64a128.47,128.47,0,0,1-28.41,16.4ZM280.45,403.63a1.49,1.49,0,1,1,1.49,1.49A1.49,1.49,0,0,1,280.45,403.63Zm209.87-85.2a1.45,1.45,0,1,1,1.45,1.45A1.45,1.45,0,0,1,490.32,318.43Zm-42-51.13L455.11,251a148.59,148.59,0,0,1,33,19.06l-10.74,14-0.81-.59A130.73,130.73,0,0,0,448.35,267.3Zm-31.27-28.19-0.26,0a162.63,162.63,0,0,0-18.95-1.18,151.55,151.55,0,0,0-19.3,1.25l-2.48-18.9,1.78-.24a168.66,168.66,0,0,1,37.25-.38c1.49,0.15,3,.33,4.46.52Zm-39.17.13a149.3,149.3,0,0,0-37.36,10l-7.26-17.52q3.55-1.46,7.19-2.79h0a170.38,170.38,0,0,1,34.94-8.59Zm-38.14-12.31h0a171.89,171.89,0,0,0-46.54,25.47l0.69,0.9a171.5,171.5,0,0,0-53.33,69.24l-12.09-5A183.63,183.63,0,0,1,373.68,206.32l1.63,11.88A172.61,172.61,0,0,0,339.77,226.92Zm75.4,290.85a130,130,0,0,0,31.52-8.27l0.87-.37,19,45.85a178.39,178.39,0,0,1-44.92,11.95ZM447.82,508a129.8,129.8,0,0,0,28.33-16.27l0.71-.57L477,491l-0.54-.7A129.08,129.08,0,0,0,499.91,467l33.44,25.65a170.82,170.82,0,0,1-36.13,34.87c1.79,2.5,3.59,5,5.38,7.5a179.55,179.55,0,0,1-35.42,19.7Zm52.28-41.71a128.11,128.11,0,0,0,25.34-60.9l20.42,2.68a148.62,148.62,0,0,1-29.35,70.8Zm37.57-60-12.14-1.6a129.79,129.79,0,0,0,1.07-16.67h0A128.33,128.33,0,0,0,517,339.24l11.2-4.64a140.47,140.47,0,0,1,10.6,53.69A142.28,142.28,0,0,1,537.67,406.32ZM517,338.51a128.92,128.92,0,0,0-17-29.23l0.71-.55a130.33,130.33,0,0,0-23.47-23.49l11.33-14.77A149,149,0,0,1,535.15,331Zm-0.5-40.81,19.66-15.08a173.36,173.36,0,0,1,22.43,38.65l-22.93,9.5A149.12,149.12,0,0,0,516.51,297.7ZM533.29,284A170.67,170.67,0,0,0,502,253l1.87-2.44a173.22,173.22,0,0,1,31.84,31.58Zm-29.58-34.31a175.39,175.39,0,0,0-31.36-19q-3.72-1.75-7.53-3.31l6.58-15.8a190.65,190.65,0,0,1,27.53,14.2q7.8,4.86,15.08,10.44Zm-40.84-19.22a169.75,169.75,0,0,0-42.48-11.24l3.77-28.67q6.69,0.88,13.23,2.19,3.09,0.62,6.2,1.35a198,198,0,0,1,30.36,9.76Zm-43-12.41c-1.51-.19-3-0.38-4.53-0.53a170.75,170.75,0,0,0-37.71.38l-1.82.25L374.14,206l0-.25-0.25,0A183.91,183.91,0,0,0,252,276.09l-12.24-9.39q3.86-5,8-9.78a199,199,0,0,1,150.1-68.1h0a201.2,201.2,0,0,1,25.6,1.64ZM589.2,388.29h0a192.09,192.09,0,0,1-3.76,37.93q-0.59,3-1.3,6a189.85,189.85,0,0,1-9.32,29l-15.12-6.29A174.94,174.94,0,0,0,571.34,411L570.8,411a174.46,174.46,0,0,1-11.6,43.69L556,453.36l-0.31.74h0a170.35,170.35,0,0,1-21.95,38l-16.3-12.5a149.73,149.73,0,0,0,29.2-68.7c0.21-1.38.37-2.76,0.55-4.14l-7.92-1.09a143.66,143.66,0,0,0,1.07-17.38,142,142,0,0,0-10.2-53L565,321.74A178.35,178.35,0,0,1,576.39,365l3.07-.41A184.28,184.28,0,0,1,581,388.72h0a184.4,184.4,0,0,1-1.5,23.49l0.52,0.09a185,185,0,0,0,1.5-23.58h0a182.75,182.75,0,0,0-14-70.41l7.22-3A190.68,190.68,0,0,1,589.2,388.29Zm-14.69-73.61-15.41,6.38a173.91,173.91,0,0,0-22.5-38.77l13.28-10.18A191.14,191.14,0,0,1,574.51,314.69Zm-50.63-70.36a192.49,192.49,0,0,1,25.58,27.25l-13.28,10.19a173.76,173.76,0,0,0-31.94-31.68l10.3-13.43Q519.33,240.35,523.88,244.32Zm-9.3-8.83q-7.31-5.59-15.15-10.49a191.69,191.69,0,0,0-27.67-14.27l2.89-6.95,0.12-.29-0.29-.12a198.56,198.56,0,0,0-30.75-9.91q-3.06-.72-6.22-1.35a201,201,0,0,0-39.62-3.93h0a200.36,200.36,0,0,0-184.8,123.24l-10-4.15a210.46,210.46,0,0,1,167-128l0.53,4.05,0,0.16,0.15,0h0q1.84-.24,3.71-0.45t3.73-.38q9.61-.9,19.48-0.91h0a205.57,205.57,0,0,1,92.79,22q6.81,3.43,13.33,7.35a207,207,0,0,1,19.4,13.22Zm9.36-11.09,2.4-3.12,1.33,1a212.11,212.11,0,0,1,37.14,37.5l-3.12,2.39A208.13,208.13,0,0,0,523.94,224.4ZM471,585.88a209.32,209.32,0,0,1-45.69,11.31l-0.51-3.9a205.4,205.4,0,0,0,52.1-14l1.51,3.63Q474.7,584.49,471,585.88Zm93.84-69.26a212.12,212.12,0,0,1-38.88,38.85l-2.39-3.11a208.13,208.13,0,0,0,36.87-36.47l1.28-1.65Z" transform="translate(-20.64 -11.26)"/><path class="b" d="M626.9,358.5l8.27-1.1v0h0l0-.27,0-.32h0A237.84,237.84,0,0,0,625,312.88q-1.38-4.17-2.91-8.26t-3.2-8.12h0l-0.33.13,0-.08-8,3.23a231.14,231.14,0,0,0-72.36-94.11l5.13-6.63q3.37,2.59,6.66,5.31t6.65,5.71a240.21,240.21,0,0,1,30.64,33h0l0.12,0.15,8.35-6.33,0.23-.17h0l0.09-.07-0.3-.39A249.42,249.42,0,0,0,432.11,141c-1.28-.18-2.56-0.31-3.83-0.47v0h0l-1.36,10.19c-3.57-.43-7.16-0.81-10.76-1.08l-2.54-.18q-7.79-.5-15.72-0.51h0a238.24,238.24,0,0,0-147.67,51,240.84,240.84,0,0,0-42.28,42.76h0l-0.15.2,8.11,6.19q-6.7,8.75-12.56,18.13a228.46,228.46,0,0,0-17.15,33.32h0a227.32,227.32,0,0,0-11.34,35.2q-0.82,3.51-1.55,7.12a230.09,230.09,0,0,0-4.49,45.35h0q0,10.92,1,21.61,0.2,2.11.42,4.14t0.46,3.85l-10.12,1.33,0.07,0.56h0A237.66,237.66,0,0,0,188.95,505q4.23,7.56,9,14.79t9.86,13.86l-7.89,6-0.22.17,0.17,0.22A250.18,250.18,0,0,0,311,622.22,247.41,247.41,0,0,0,365,635.61h0l0.56,0.08L367,625.32l0-.28-0.28,0h0q-8.95-1.17-17.69-3t-17.23-4.27a238.26,238.26,0,0,1-77.73-38.93l5.27-7.13a228.79,228.79,0,0,0,138.54,46.46,231.55,231.55,0,0,0,29.59-1.9l1.24,9.08,0,0.28,0.28,0a237.83,237.83,0,0,0,44.12-10.07q4.11-1.36,8.2-2.88t7.88-3.1l3.8,9.17,0.11,0.26,0.26-.11a248.76,248.76,0,0,0,41.42-22q3.81-2.5,7.49-5.13c2.54-1.81,5-3.69,7.52-5.56l-0.17-.22-4.61-6.1a243.1,243.1,0,0,0,44.26-44.22c0.08-.1.26-0.4,0.33-0.5l-1.77-1.38-0.22-.17-6.35-5a229.89,229.89,0,0,0,47.51-140.28A232.87,232.87,0,0,0,626.9,358.5Zm-229-208.92h0q7.89,0,15.68.51l2.53,0.18c3.61,0.27,7.18.64,10.73,1.07l-1.21,9.06a230.53,230.53,0,0,0-57.37.24l-1.19-9.08a240.84,240.84,0,0,1,30.82-2h0ZM208.58,242.87a239.89,239.89,0,0,1,42-42.41,237.57,237.57,0,0,1,115.83-48.81l1.19,9.08a228,228,0,0,0-51.34,13c-3.46,1.32-6.85,2.76-10.27,4.18l6.66,15.7a212.5,212.5,0,0,0-43.87,25.89L258.7,206.33l-0.4.33a230.45,230.45,0,0,0-32.79,30.77q-4.81,5.49-9.27,11.3Zm272.57,369.2q-4,1.5-8.18,2.87a237.2,237.2,0,0,1-43.74,10l-1.2-8.8a228.25,228.25,0,0,0,57.58-15.38L489,609Q485.1,610.6,481.15,612.07Zm139.2-171.39a226.73,226.73,0,0,1-11.21,34.83l-20.37-8.44-0.26.63,20.37,8.44q-1.56,3.75-3.24,7.4-1.75,3.81-3.64,7.56a228.75,228.75,0,0,1-22.7,36.12l-0.26.31,8,6.27-0.17.22a240.22,240.22,0,0,1-43.78,43.66l0,0-0.22.16,6.13,8.16q-3.48,2.66-7.06,5.21t-7.47,5.12a248.34,248.34,0,0,1-41.07,21.82l-7.82-18.86-0.26.11,0-.06a227.61,227.61,0,0,1-87.45,17.36,230.32,230.32,0,0,1-29.48-1.89l3.77-28.68-0.67-.09-3.77,28.67a226.79,226.79,0,0,1-57.08-15.28l11-26.46-0.63-.26-11,26.46a228.34,228.34,0,0,1-50.25-29l-1.35-1-0.09.12-0.12.16-6.4,8.3,0.29,0.23h0l0.13,0.1,0,0a238.89,238.89,0,0,0,79.38,40.12q8.5,2.45,17.27,4.28t17.45,3L365,635.05a248.25,248.25,0,0,1-164.54-95.12l8.11-6.18h0l22-16.82-0.41-.54-22,16.84q-5.13-6.7-9.79-13.76t-9-14.76a237.1,237.1,0,0,1-28.22-85l9.83-1.29,0.28,0h0l1-.12-0.08-.61a229.6,229.6,0,0,1-1.88-29.36,226.7,226.7,0,0,1,17.16-86.75l15.14,6.27,0.26-.62-15.14-6.27A228.33,228.33,0,0,1,259.12,208L276,230l0.54-.41-6.86-8.95a210.9,210.9,0,0,1,47-27.21l10.46,25.25,0.63-.26-17.12-41.3a226.81,226.81,0,0,1,57.08-15.28l3.75,28.5,0.67-.09-3.75-28.5a230.28,230.28,0,0,1,59.2,0h0l0.15,0,2.6-18.87,0.38,0.05a247.3,247.3,0,0,1,163.34,94.47l-6.55,5A240.68,240.68,0,0,0,557,209.64q-3.28-2.92-6.66-5.73t-6.87-5.48l-0.25-.19-0.33.44-5.14,6.64a230.14,230.14,0,0,0-51.71-29.88l-0.76,1.83A229.22,229.22,0,0,1,608.87,300.82l0.15-.06L609.1,301l0.26-.11,9.19-3.73q1.58,3.82,3,7.67,1.53,4.09,2.91,8.24a237.13,237.13,0,0,1,10,43.78L602.63,361l-89,11.7,0.1,0.67,89-11.7,21.79-2.9q0.24,1.87.46,3.79,0.23,2.09.42,4.13,1,10.63,1,21.55h0a230.39,230.39,0,0,1-1.89,29.44l-53.66-7.06-0.09.67,53.65,7.05q-1,7.67-2.51,15.17Q621.19,437.13,620.35,440.69Z" transform="translate(-20.64 -11.26)"/><path class="b" d="M675.19,424.49l-9.43-1.21q0.3-2.32.56-4.61t0.5-4.89q1.18-12.6,1.19-25.5v0h0q0-8.95-.57-17.73-0.09-1.46-.2-2.86-0.54-7.21-1.47-14.34l9.42-1.25,0.24,0,0-.24h0q-1.37-10.5-3.5-20.74t-5-20.19a279,279,0,0,0-47-93l-0.15-.19-0.19.15-7.5,5.84a271.5,271.5,0,0,0-47.59-48,268.84,268.84,0,0,0-131.23-55.2L434.5,111l0-.24-0.24,0h0q-2.53-.33-5-0.61t-5-.52q-13-1.21-26.33-1.22h0a281.07,281.07,0,0,0-55.46,5.5q-4.4.88-8.71,1.9a277.7,277.7,0,0,0-43,13.88l-0.22.09,0.09,0.22,3.58,8.81q-11.05,4.6-21.59,10.13a270.4,270.4,0,0,0-38.88,24.87l-5.82-7.52-0.15-.19-0.19.15h0a281.68,281.68,0,0,0-49.93,49.44A278.66,278.66,0,0,0,118,388.29v0h0q0,9.27.6,18.38,0.1,1.5.21,3,0.57,7.6,1.55,15.1l0,0.24,0.24,0,15.56-2.06a263.68,263.68,0,0,0,99.62,173.67l-3.42,4.34a271.17,271.17,0,0,1-35.8-33.52q-3.28-3.69-6.43-7.5T184,552.17h0l-0.56-.65-10.15,8,0.42,0.53h0a283.43,283.43,0,0,0,116,89.19l1-2.35,0.19,0.08,0.08,0h0l0,0,6.27-15.25q4.23,1.75,8.57,3.37t9,3.18A261.74,261.74,0,0,0,363.1,649.4l-0.78,6.42,0.31,0,0,0.28h0q2.46,0.32,4.86.59t4.89,0.5q12.61,1.18,25.51,1.19h0A269.24,269.24,0,0,0,501.14,638l3.47,8.59a277.22,277.22,0,0,1-42.72,13.75q-4.34,1-8.68,1.89a280.55,280.55,0,0,1-55.33,5.48h0a282,282,0,0,1-36.47-2.36l0.39-2.93a274.67,274.67,0,0,1-48.89-11l-0.87-.27,0,0.07-0.08,0-0.94,3-0.07.23,0.23,0.07h0q5.73,1.87,11.58,3.49t11.78,3a280.61,280.61,0,0,0,63.38,7.21h0a281,281,0,0,0,55.42-5.49q4.4-.88,8.7-1.89a277.62,277.62,0,0,0,43-13.86l0.22-.09-0.09-.22-3.56-8.82q9-3.76,17.72-8.14,8.91-4.49,17.44-9.62a271.6,271.6,0,0,0,75.32-67.14l7.53,5.8,0.19,0.15,0.15-.19h0q6.14-8,11.72-16.44t10.53-17.29a278,278,0,0,0,33.2-100.14l0-.24ZM291.07,130.05a277.21,277.21,0,0,1,42.75-13.77q4.34-1,8.69-1.89a280.62,280.62,0,0,1,55.37-5.49h0q13.31,0,26.29,1.22,2.5,0.23,5,.52t4.79,0.58l-1.21,9.18a272.55,272.55,0,0,0-34.91-2.24h0a269.57,269.57,0,0,0-91.6,15.94q-5.92,2.14-11.71,4.54Zm10.26,24.55L295,139.22q5.71-2.36,11.55-4.48a267.67,267.67,0,0,1,55.93-13.58l2.12,16.53a251,251,0,0,0-54.66,13.56Q305.57,152.85,301.33,154.61Zm-28.49-5q10.48-5.5,21.49-10.09l6.38,15.39a252.58,252.58,0,0,0-56.43,32.66l-10.13-13.2A269.65,269.65,0,0,1,272.84,149.56Zm-29.1,38.38a254.36,254.36,0,0,0-46.29,46.31L184.28,224a271.16,271.16,0,0,1,49.33-49.31ZM177.93,216a281.11,281.11,0,0,1,49.66-49.21l5.67,7.33a271.82,271.82,0,0,0-49.52,49.51L176.43,218C176.93,217.3,177.43,216.65,177.93,216ZM120.8,424.46q-1-7.35-1.52-14.84-0.11-1.5-.21-3-0.59-9.11-.6-18.35h0v0A278.14,278.14,0,0,1,176,218.5l7.31,5.67a269.91,269.91,0,0,0-34.91,60.33h0l-0.27.63,16,6.73q-2.52,6.11-4.73,12.37t-4.19,13A251.3,251.3,0,0,0,147.27,355l-10.2-1.22-0.33,0,0,0.34v0h0q-0.31,2.39-.57,4.72t-0.48,4.74q-1.14,12.23-1.15,24.74h0a265.59,265.59,0,0,0,2.2,34.06Zm16.6-1.94h0a265.06,265.06,0,0,1-2.22-34.22h0q0-12.5,1.14-24.68,0.22-2.33.48-4.73,0.25-2.23.52-4.38l9.85,1.18a255.1,255.1,0,0,0-2.09,32.62h0a253.85,253.85,0,0,0,4.94,50q0.8,4,1.7,7.84a250.89,250.89,0,0,0,12.35,38.48L155,488.36A260.8,260.8,0,0,1,137.41,422.52Zm399,196.93q-8.5,5.11-17.4,9.59a267.56,267.56,0,0,1-85.7,26.39l-0.77-6A263.1,263.1,0,0,0,606.68,548.73l4.85,3.74A270.91,270.91,0,0,1,536.4,619.44Zm105.38-94.77q-5,8.84-10.51,17.26T619.7,558.16l-13.27-10.23-0.14.18h0a264.76,264.76,0,0,1-48.35,48.39l-43.05-56.12-0.54.41,43.05,56.13a262.94,262.94,0,0,1-58.66,34l-27.08-65.35-0.62.26,27.08,65.35q-4.42,1.83-8.91,3.5a261.08,261.08,0,0,1-57.1,14.16h0l-0.34,0,0,0.34,0.82,6.34a271.65,271.65,0,0,1-34.74,2.23h0q-12.89,0-25.45-1.18-2.41-.23-4.88-0.5c-1.52-.17-3-0.35-4.5-0.55l0.77-6.36,0-.34-0.34,0A261,261,0,0,1,315,637.66q-4.54-1.51-9-3.18T297.18,631h0l-0.32-.13-0.13.32-6.22,15.11a279.79,279.79,0,0,1-87.17-57.49Q196,581.69,189.19,574q-5.4-6.07-10.45-12.45l7-6c1.28,1.61,2.56,3.18,3.88,4.78q3.16,3.82,6.45,7.51A271.8,271.8,0,0,0,233.3,602.5h0l0.26,0.2,4.3-5.62,0.21-.27-0.24-.18,0,0A263.57,263.57,0,0,1,155.22,489l9.44-3.9L165,485l-0.13-.32A250.16,250.16,0,0,1,152.4,446q-0.92-3.92-1.7-7.82a253.19,253.19,0,0,1-4.93-49.84h0a254.41,254.41,0,0,1,2.07-32.38l59.87,7.84,0.09-.67-59.86-7.84a250.69,250.69,0,0,1,7.95-37.82q1.91-6.55,4.18-13t4.85-12.65h0l0.13-.31-0.32-.13-11.41-4.8a264.72,264.72,0,0,1,34.21-59.13l9.75,7.57,0.27,0.25,0.23-.29a253.67,253.67,0,0,1,46.39-46.47l7.94,10.35,0.54-.41-7.94-10.35A250.66,250.66,0,0,1,365,138.32h0l0.34,0,0-.34-2.17-16.86a271.88,271.88,0,0,1,34.76-2.23h0a271.88,271.88,0,0,1,34.82,2.23l-0.88,6.68,0.23,0h0a260.85,260.85,0,0,1,66.09,17.62L492.91,158l0.63,0.26,5.22-12.6a262.47,262.47,0,0,1,58.69,33.94l-8.32,10.84,0.54,0.41L558,180a263.11,263.11,0,0,1,82.48,107.29L631,291.26l-0.32.13,0.13,0.32a250.22,250.22,0,0,1,12.51,38.77q0.92,3.93,1.71,7.84a253.2,253.2,0,0,1,5,50h0a252.11,252.11,0,0,1-10.12,71q-1.92,6.55-4.19,13t-4.86,12.66h0l-0.13.32,0.32,0.13,10.08,4.19,0.26-.63h0q2.64-6.37,5-12.91,2.37-6.69,4.38-13.56a263,263,0,0,0,10.6-74.12v0h0q0-8.73-.56-17.31-0.09-1.43-.2-2.79Q660,361,659,354l0-.34-0.34,0L648.48,355q-1.12-8.5-2.78-16.81-0.8-4-1.71-7.86a250.86,250.86,0,0,0-12.41-38.56l9.74-4.06-0.11-.27,0,0h0A263.89,263.89,0,0,0,432.37,127.15l0.79-6a268.15,268.15,0,0,1,130.9,55.06,271.17,271.17,0,0,1,47.6,48.09h0l0.17,0.21,7.85-6.1A278.5,278.5,0,0,1,666.44,311q2.85,9.93,5,20.15t3.46,20.47L665,353l0.05,0.42q0.92,7.11,1.47,14.36,0.11,1.45.2,2.85,0.57,8.78.57,17.69h0v0q0,12.88-1.18,25.44-0.23,2.41-.5,4.87t-0.59,4.85v0h0l0,0.21,9.86,1.27A277.51,277.51,0,0,1,641.77,524.67Zm8.89-136.38a255.11,255.11,0,0,0-2.09-32.6l9.84-1.3q0.88,6.85,1.41,13.84,0.11,1.42.2,2.78,0.56,8.57.56,17.26h0v0A262.28,262.28,0,0,1,650,462.22q-2,6.84-4.37,13.52-2.31,6.52-4.95,12.88l-9.12-3.79q2.53-6.11,4.74-12.38t4.2-13a252.77,252.77,0,0,0,10.15-71.14h0Z" transform="translate(-20.64 -11.26)"/><path class="c" d="M349.41,753.76q-6.83-.89-13.6-2t-13.43-2.53a366.44,366.44,0,0,1-66.1-20.39l-0.26-.11-0.11.26-2.9,7-0.11.26,0.26,0.11h0q6.28,2.61,12.7,5t12.92,4.56a374,374,0,0,0,69.56,15.93l0.28,0,0-.28,1-7.52,0-.28-0.28,0h0Zm-1.25,7.49A373.43,373.43,0,0,1,279,745.37q-6.5-2.16-12.9-4.55t-12.44-4.9l2.69-6.49a367,367,0,0,0,65.94,20.31q6.69,1.39,13.46,2.53t13.36,2Z" transform="translate(-20.64 -11.26)"/><path class="c" d="M766.83,388.14h0a372.56,372.56,0,0,0-3.05-47.61l-0.09-.67a366.94,366.94,0,0,0-17.06-72.48q-3.2-9.26-6.86-18.26c-0.25-.62-0.52-1.24-0.78-1.86l-0.26-.62a369,369,0,0,0-48-83l5.77-4.43,0.22-.17-0.17-.22h0A379.33,379.33,0,0,0,630,91.5c-0.85-.67-1.71-1.31-2.56-2l-0.54-.41a376.5,376.5,0,0,0-84.39-48.94l-0.63-.26A375.52,375.52,0,0,0,397.53,11.26h0q-12.5,0-24.79.81l-4,.28q-10.25.78-20.36,2.1l-0.5.07a374.62,374.62,0,0,0-66.5,15q-14.07,4.56-27.63,10.19L253.1,40q-17.28,7.18-33.68,16a377.3,377.3,0,0,0-50.8,32.82l-0.54.41A378.12,378.12,0,0,0,49.4,243.63l-0.26.62A374.07,374.07,0,0,0,26,324.37l-0.21,1.24q-1.51,9-2.59,18.14h0a378.85,378.85,0,0,0-2.61,44.39h0a380.07,380.07,0,0,0,3.14,48.79,4.22,4.22,0,0,1,.1.84h0A374.15,374.15,0,0,0,60.77,557.51Q67,569.95,74.19,581.84a378.75,378.75,0,0,0,93.55,105h0l0.89,0.69,12-15.58a356.91,356.91,0,0,0,82.6,47.38q8.69,3.54,17.68,6.65a356.69,356.69,0,0,0,117,19.59h0q16.95,0,33.55-1.56,3.29-.31,6.43-0.66t6.4-.77h0l0.82-.11-1.8-13.87a340.88,340.88,0,0,0,85.68-23l9.63,23.25a366.09,366.09,0,0,1-93.08,24.89l-0.28,0,0,0.28,1,7.52,0,0.28,0.28,0h0a374.44,374.44,0,0,0,82-20.25q6.64-2.47,13.16-5.18l0.63-.27a376.47,376.47,0,0,0,84.34-48.84l0.18-.12,0.28-.21,0.12-.09h0a379.3,379.3,0,0,0,69.27-69.36l0.17-.22-0.22-.17-5.78-4.43a367.66,367.66,0,0,0,76.12-224.55h0ZM739.24,249.33q3.67,9,6.86,18.23a366.42,366.42,0,0,1,17,72.37l-24.9,3.27a340.86,340.86,0,0,0-23-86.09l23.25-9.64C738.72,248.1,739,248.71,739.24,249.33Zm0.25,139A343,343,0,0,1,732.77,456q-1.06,5.27-2.32,10.63a338.89,338.89,0,0,1-16.64,51.77l-12.39-5.15a326.28,326.28,0,0,0,24.43-124.22h0A329.94,329.94,0,0,0,723,345.88l13.63-1.79a344.67,344.67,0,0,1,2.84,44.2h0ZM679.79,505.53l-0.11.26h0a304.17,304.17,0,0,1-39.35,68.08l-33.85-26-0.43.57,33.86,26a304,304,0,0,1-56,56l-21.62-28.18-0.54.41,21.62,28.18c-2.69,2.06-5.4,4.09-8.16,6.06,3.19,4.47,6.41,8.92,9.6,13.39a320.62,320.62,0,0,1-63.46,35.28l-19.92-48.07-0.62.26,19.91,48.07a318.47,318.47,0,0,1-78,21.12l-2.69.35-6.77-51.51-0.67.09,4.6,35-1.42.19a307.47,307.47,0,0,1-77.39-.34l4.6-35-0.67-.09-4.6,35A302.1,302.1,0,0,1,281.45,670L291,646.85l-0.63-.26-9.58,23.11a304,304,0,0,1-68.17-39.76l15.07-19.61-0.54-.41-15.06,19.61A304.81,304.81,0,0,1,117,504.79l37.85-15.65-0.26-.62-37.85,15.65a303.25,303.25,0,0,1-22.56-115.1h0a306.94,306.94,0,0,1,2.6-39.83l23.82,3.12,0.09-.67-23.81-3.12a302.09,302.09,0,0,1,20.46-76l21.93,9.08,0.26-.63-21.93-9.08A305.32,305.32,0,0,1,212.83,148l0.49,0.64a303,303,0,0,1,82.06-44.91h0a304.33,304.33,0,0,1,62.67-15.4L361,111l0.67-.09-3-22.67,3.42-.44a301.19,301.19,0,0,1,66.5-.68c2.78,0.28,5.54.61,8.3,1l-4.3,32.78,0.67-.1,4.4-33.46a302,302,0,0,1,76.12,20.15l-13,31.32,0.63,0.26,13-31.33a304.06,304.06,0,0,1,68.1,39.12l-20.79,27.1,0.54,0.41,20.79-27.1a305.07,305.07,0,0,1,59.69,60.5l0.76-.57a305.35,305.35,0,0,0-59.88-60.68l3.35-4.37A308.88,308.88,0,0,1,685,268.91l-28.9,12,0.26,0.63,28.89-12q2.86,6.88,5.43,14h0a311.61,311.61,0,0,1,15.73,63.89L665,352.82l0.09,0.67,41.37-5.43a309.85,309.85,0,0,1-20.55,158.77l-5.68-2.36-0.18.44-23.64-9.8-0.26.63ZM641.22,576l27.16,20.92a343.58,343.58,0,0,1-50.75,52.91q-5.71,4.8-11.64,9.35L585.16,632A307.56,307.56,0,0,0,641.22,576ZM279.13,676.85h0l-1.56-.65-11.4,27.38q-11.3-4.73-22.17-10.23-11.23-5.68-22-12.16a343.48,343.48,0,0,1-95.26-85.09l-0.52-.67-0.67.52L114.7,604.3q-3.72-4.86-7.27-9.85-3.78-5.32-7.34-10.72A355.22,355.22,0,0,1,69,525.19l12.66-5.25,0.78-.33-0.33-.78h0q-3.5-8.44-6.55-17.12h0q-3.06-8.7-5.65-17.54a339.74,339.74,0,0,1-10.71-51l12.85-1.71A327.24,327.24,0,0,0,146.2,599.6a330.66,330.66,0,0,0,51.45,49.29h0l0.36,0.28,0.27-.36,13.83-18.09a303.81,303.81,0,0,0,185.3,63.52,309.37,309.37,0,0,0,38.8-2.31l1.15-.16,2,15.59a324.25,324.25,0,0,1-79.67.28l1.15-9.47C332.89,695.25,305.1,687.63,279.13,676.85ZM56.27,388.28a344.63,344.63,0,0,1,2.81-43.91l13.29,1.8,0.45,0.06,0.06-.45h0A325.63,325.63,0,0,1,86.42,286q3.77-11.5,8.38-22.61L110.51,270a310.49,310.49,0,0,0-5.12,224.95h0q2.2,6.08,4.62,12l-15.19,6.28a325.39,325.39,0,0,1-21.94-82.36l-0.06-.45-0.45.06-13.3,1.77a344.67,344.67,0,0,1-2.81-44h0Zm2.93-44.8q1.52-11.6,3.79-23,1.06-5.27,2.32-10.64A338.91,338.91,0,0,1,82,258.09l12,5q-4.6,11.14-8.4,22.68A326.68,326.68,0,0,0,72,345.21Zm632.36-60.31h0q-2.57-7.1-5.45-14l8.62-3.57a318.63,318.63,0,0,1,21.77,80.46l-9.16,1.2a312.66,312.66,0,0,0-15.78-64.09h0Zm9.17-20.05,12.91-5.35a339.21,339.21,0,0,1,22.91,85.66l-13.64,1.79A325.15,325.15,0,0,0,700.73,263.11Zm-14.87,5.43a310.51,310.51,0,0,0-40.47-69.7l23.73-18.21a341.3,341.3,0,0,1,44.26,76.49ZM645,198.31a310.28,310.28,0,0,0-57.35-56.93l18.38-24q8.64,6.65,16.84,13.82a343.74,343.74,0,0,1,45.86,48.86ZM587.08,141a313.15,313.15,0,0,0-56.25-34q-6.65-3.12-13.44-5.91l11.75-28.21A340.51,340.51,0,0,1,578.3,98.18q14.06,8.76,27.17,18.83Zm-0.59.77-3.34,4.36A305,305,0,0,0,515,106.9l2.07-5q6.77,2.8,13.4,5.89A312.18,312.18,0,0,1,586.49,141.74Zm-72.58-35.27a303.1,303.1,0,0,0-76.06-20.09l6.73-51.19q12,1.58,23.83,3.93,5.52,1.11,11.07,2.41A353.34,353.34,0,0,1,533.7,59ZM437.46,84.34c-2.8-.36-5.61-0.7-8.42-1a304.89,304.89,0,0,0-67.32.68l-3.26.42-3-21.64-0.06-.44-0.44.06a326.33,326.33,0,0,0-82.7,22.1L261.75,59.09a355,355,0,0,1,136.13-27h0a359.19,359.19,0,0,1,46,3ZM212.25,147.26A305.5,305.5,0,0,0,156.61,203L138,188.67a328.84,328.84,0,0,1,134-103l8.27,19.94A306.2,306.2,0,0,0,211,145.65Zm60.39-61.9a325.42,325.42,0,0,1,82-22l2.9,21.19a308.31,308.31,0,0,0-63.44,15.6h0q-6.7,2.42-13.21,5.13Zm-1-.57a328.34,328.34,0,0,0-73.53,42.55L181.4,105.48a355.82,355.82,0,0,1,79.72-46.13Zm-74.07,43a330.67,330.67,0,0,0-60.35,60.37l-21.84-16.75q7-9.05,14.47-17.64a358.37,358.37,0,0,1,51-47.85Zm-60,61.46L156.2,203.5A305,305,0,0,0,117,270.88l-21.57-9A325.35,325.35,0,0,1,137.55,189.2ZM93.28,389.06a304.2,304.2,0,0,0,22.63,115.47l-5,2.07q-2.41-5.91-4.61-12h0A309.2,309.2,0,0,1,90.46,348.39l5.43,0.71a307.38,307.38,0,0,0-2.61,39.95h0Zm44.29,198.33a327.4,327.4,0,0,1-42.48-73.52l21.08-8.72a304.83,304.83,0,0,0,39.3,68.51Zm18.31-13.19a304.84,304.84,0,0,0,55.53,56L197.85,647.9a329.89,329.89,0,0,1-51-48.89q-4.57-5.44-8.9-11.09ZM90.55,347.72a311.52,311.52,0,0,1,20.85-77.35l5,2.08a303.29,303.29,0,0,0-20.39,76Zm616.88,0.21,9.17-1.2h0l1.72-.23,3.77-.49a329.29,329.29,0,0,1,2.82,43h0a325.3,325.3,0,0,1-24.36,123.86l-13.73-5.71A310.83,310.83,0,0,0,707.43,347.93ZM738.2,246.85l-23.25,9.64a343,343,0,0,0-44.49-76.87l20-15.37A368.34,368.34,0,0,1,738.2,246.85ZM627.07,90l2.55,2a378.68,378.68,0,0,1,66.31,66.95l-5.57,4.27a371.67,371.67,0,0,0-67.56-67.63Zm63,73.76-20,15.36A345.47,345.47,0,0,0,624,130q-8.23-7.21-16.93-13.89L622.45,96A371.06,371.06,0,0,1,690.07,163.72ZM448.05,19a370.24,370.24,0,0,1,92.16,24.83L540,44.3l0.3,0.12L539,47.56q12.32,5.13,24.18,11.11Q575.38,64.8,587,71.79a369.57,369.57,0,0,1,34.89,23.79l-15.42,20.1q-13.17-10.1-27.3-18.93a342.29,342.29,0,0,0-49.4-25.47L535,58.87l0.22-.52-0.52-.22a354.41,354.41,0,0,0-54.91-17.7q-5.47-1.28-11.11-2.42-11.82-2.37-23.91-3.94l2-15.22Zm-50.18-5.36a377.9,377.9,0,0,1,48.45,3.12L444.07,34a360.4,360.4,0,0,0-46.18-3h0a360.43,360.43,0,0,0-46.28,3L349.34,16.8A377.85,377.85,0,0,1,397.88,13.67ZM281.53,30.07a374,374,0,0,1,66.63-15l0.27,0,2.5,19.05a354.77,354.77,0,0,0-89.61,24l-7.38-17.8Q267.48,34.65,281.53,30.07ZM219.69,56.45Q236,47.67,253.31,40.51l7.38,17.8a357,357,0,0,0-80,46.28L169,89.23A376.67,376.67,0,0,1,219.69,56.45ZM168.43,89.65L180.18,105A359.55,359.55,0,0,0,129,153q-7.54,8.61-14.52,17.7L99.14,158.9A378.57,378.57,0,0,1,168.43,89.65ZM98.72,159.44l15.38,11.79q-10.48,13.68-19.65,28.36A356.3,356.3,0,0,0,67.92,251L50,243.63A376,376,0,0,1,98.72,159.44ZM26.39,325.73l0.19-1.15a373.47,373.47,0,0,1,23-79.92L68,252.3l0.51,0.21,0.22-.51h0a355.06,355.06,0,0,1,26.67-51.81q9.12-14.63,19.59-28.27l21.84,16.74a326.22,326.22,0,0,0-42.22,72.87L81.84,256.2l-0.78-.33-0.33.78A340.62,340.62,0,0,0,63.67,309.5q-1.23,5.24-2.33,10.69Q59,331.65,57.51,343.4l-33.12-4.34C25,334.61,25.65,330.16,26.39,325.73Zm-1.14,62.56a376,376,0,0,1,3.08-48l29.09,3.81a346.33,346.33,0,0,0-2.84,44.22h0a346.38,346.38,0,0,0,2.85,44.39l-29.08,3.82A375.39,375.39,0,0,1,25.25,388.29Zm142.83,298.1a378.61,378.61,0,0,1-52.76-49.34c-5.65-6.4-10.91-13.07-16.21-19.76l5.41-4.2c5.22,6.44,10.4,12.9,15.88,19.11s11.38,12.47,17.37,18.4a371.77,371.77,0,0,0,34.59,30.23ZM442.25,727l-0.84.11,0.11,0.84,1.77,13.59c-1.82.23-3.66,0.45-5.55,0.66q-3.26.36-6.41,0.66-16.49,1.54-33.45,1.55h0a355.55,355.55,0,0,1-116.59-19.53q-8.88-3.08-17.62-6.64a355.81,355.81,0,0,1-82.78-47.57l-0.45-.34-0.34.45-7.38,9.57a371,371,0,0,1-34.54-30.18q-9-8.92-17.41-18.45-7-7.89-13.46-16.18a368.43,368.43,0,0,1-50.5-86.24l-3.33,1.38a370.13,370.13,0,0,1-25-93.53l29.08-3.82a341.43,341.43,0,0,0,10.77,51.29q2.61,8.95,5.67,17.63h0q2.93,8.31,6.26,16.43l-12.91,5.35,0.33,0.78h0a356.31,356.31,0,0,0,31.53,59.49q3.6,5.47,7.36,10.76,3.56,5,7.29,9.88h0l1,1.34,11.08-8.54a345.18,345.18,0,0,0,95.21,84.85q10.79,6.49,22.11,12.22t23.06,10.6l0.78,0.33,0.33-.79,10.17-24.42a313.44,313.44,0,0,0,77,21l-1.87,11.61c30.68,3.43,60.71,4.21,91.37-.06a324.76,324.76,0,0,0,79.13-21.49l5.16,12.45A339.18,339.18,0,0,1,442.25,727ZM529,703.82l-5.16-12.45a327.1,327.1,0,0,0,72.39-41.63c0.12-.09.79-0.51,1.15-0.75l8.12,10.59A341.29,341.29,0,0,1,529,703.82Zm-0.59,37.25a373.69,373.69,0,0,1-81.58,20.19l-0.92-7a366.61,366.61,0,0,0,93-24.88l2.69,6.49Q535,738.61,528.38,741.07Zm10.87-12.45-9.63-23.25a343,343,0,0,0,76.88-44.46l15.27,19.91A368.33,368.33,0,0,1,539.25,728.63ZM695.92,617.41a378.75,378.75,0,0,1-69,69l-4.26-5.55a371.41,371.41,0,0,0,65.42-64.79q1.15-1.46,2.29-2.94Zm70.34-229.26h0a367.1,367.1,0,0,1-76,224.21h0l-0.17.22h0a371.13,371.13,0,0,1-55.3,57.81q-6.12,5.15-12.47,10L607,660.5q5.95-4.58,11.7-9.4a345.66,345.66,0,0,0,51.51-53.83h0l0.52-.67-0.67-.51-29-22.3a304.79,304.79,0,0,0,39-67.54l5.16,2.15q-2.65,6.37-5.57,12.61a312.63,312.63,0,0,1-22.35,39.79l0.81,0.54a313.56,313.56,0,0,0,22.42-39.91q2.94-6.26,5.59-12.65l13.75,5.72-0.13.31,0.88,0.37,0.13-.31,13.15,5.47,0.78,0.32,0.32-.78a340.72,340.72,0,0,0,17-52.82q1.23-5.23,2.33-10.68a344.81,344.81,0,0,0,6.75-68.06h0a346.3,346.3,0,0,0-2.86-44.42l24.9-3.27a372,372,0,0,1,3,47.54h0Z" transform="translate(-20.64 -11.26)"/></svg>